<?xml version="1.0" encoding="UTF-8"?>
<svg viewBox="0 0 180 160.27776" xmlns="http://www.w3.org/2000/svg">
 <defs>
  <filter id="a">
   <feGaussianBlur stdDeviation="35.5181"/>
  </filter>
  <filter id="b">
   <feGaussianBlur stdDeviation="2.0296"/>
  </filter>
 </defs>
 <g transform="translate(-5.0007 -108.29)" fill-rule="evenodd">
  <path d="m55.967 109.11c-50.087-0.90051-96.436 77.429 38.6 158.64 0.14766-0.26641 0.71781-0.26641 0.86547 0 139.39-83.831 85.513-164.58 33.753-158.29-20.178 2.4504-29.7 13.649-34.185 23.281-4.4857-9.6318-14.008-20.831-34.186-23.281-1.618-0.19658-3.2306-0.3171-4.8468-0.34619z" fill="#f06" stroke="#000" stroke-linejoin="round" stroke-width="1.6299"/>
  <path transform="matrix(.88948 0 0 -.88948 15761 3803.4)" d="m-17688 4045.3c-14.06 19.029-24.699 44.251-17.25 67.813 6.496 20.549 27.186 35.553 48.906 34.25 6.882-0.2412 14.604-2.0166 20.156-5.2188-30.916-1.043-58.799-28.252-58.875-59.469-0.634-13.45 2.721-26.86 8.344-39l-1.281 1.625z" fill="#ff2a7f" filter="url(#b)"/>
  <path transform="matrix(.88948 0 0 -.88948 15761 3803.4)" d="m-17698 4072.8c-7.576 18.548-6.849 42.263 8.282 57.062 9.593 9.7205 24.317 15.075 37.468 13.344-29.044-9.0759-50.098-39.944-45.687-70.562l-0.063 0.1562z" fill="#f59" filter="url(#b)"/>
  <path transform="matrix(.88948 0 0 -.88948 15761 3803.4)" d="m-17699 4104.4c2.086 12.972 10.36 25.18 22.469 30.594-10.116-8.2002-18.067-19.018-22.594-31.188l0.125 0.5937z" fill="#fff" filter="url(#b)"/>
  <path transform="matrix(.062423 0 0 .062423 407.61 -252.74)" d="m-3824.4 6087c95.511 871.77-341.58 1448.7-1185.7 2186.3 1030-572.82 1706.6-1491.5 1185.7-2186.3z" fill="#f59" filter="url(#a)"/>
  <path transform="matrix(.062423 0 0 .062423 407.61 -252.74)" d="m-3748.8 6358.9c-7.3308 330.35-97.462 624.34-261.44 903.56-101.66 173.12-231.21 340.79-386.16 510.09 213.13-183.42 387.24-380.49 506.47-579.28 172.22-287.15 232.7-570.64 141.12-834.38z" fill="#faa" filter="url(#a)"/>
  <path transform="matrix(.062423 0 0 .062423 407.61 -252.74)" d="m-3735.3 6510.8c-27.982 274-114.93 524.51-255.16 763.28-33.714 57.408-70.414 114.15-110 170.53 73.739-86.814 137.91-174.9 190.84-263.16 138.46-230.87 203.44-456.29 174.31-670.66z" fill="#fff" filter="url(#a)"/>
 </g>
</svg>
